<svg xmlns="http://www.w3.org/2000/svg" viewBox="0 0 2655.91 963.01"><defs><style>.cls-1{fill:#fff;}</style></defs><title>Asset 1</title><g id="Layer_2" data-name="Layer 2"><g id="Layer_1-2" data-name="Layer 1"><path class="cls-1" d="M1926,391.15q0,132.42,0,264.85c0,46.09-22.72,79.52-65.41,93.84-40.69,13.65-93.19,6.47-121-29.23-16.24-20.85-21.79-44.82-21.79-70.61q0-204.58.12-409.19c0-12.12-.51-24.32-13.54-28.72-14.26-4.8-29.56-6.16-43.27,2.55-8.47,5.38-8.62,14.59-8.61,23.69q.16,116.53.06,233.07c0,58.27.15,116.54-.13,174.81-.06,11.41-.7,23-3,34.17a94,94,0,0,1-82.74,74.41c-18.86,1.89-37.84,2.12-56.35-3.95-39.16-12.85-65.28-46.64-65.48-88.49-.63-133.74-.53-267.49-.7-401.23,0-8.39.12-16.78,0-25.16-.29-14.94-8.24-25-20.65-26.42-11.66-1.34-21.17,6-25.27,20.42q-35.54,125.18-70.8,250.41c-18.79,66.54-37.71,133-56.24,199.64-10.18,36.58-28.83,65-67.81,75.81-55.72,15.46-120.46-17-135.33-68.17a96.09,96.09,0,0,1-.38-53.5Q1144.82,358.06,1222.19,82C1238,25.71,1271.61.11,1330,.1Q1564.4,0,1798.8.11C1870.94.14,1926,55.43,1926,127.62Q1926.07,259.38,1926,391.15Z"/><path class="cls-1" d="M2028.33,377.63q0-140.35.16-280.73a127.55,127.55,0,0,1,3.69-28.75c9.7-40.92,37.44-64.31,79.27-67.42,6.59-.49,13.23-.62,19.84-.62q207.91-.06,415.83,0c49.1,0,81.38,20.48,97.93,62,17,42.54,6.27,92.8-26.53,123.12-19.16,17.72-42.56,24.15-68.11,24.15q-140.38,0-280.76,0c-27.07,0-34.25,7.3-34.28,34.73,0,2.65,0,5.3,0,8,.29,21,8.8,29.58,30,29.6q147.66.11,295.32,0c20.78,0,40.29,4.65,57.32,17.05,27.76,20.21,32.54,50,32.44,81.24,0,10-.71,20.17-3.13,30.18-10.06,41.64-40.77,66.63-83.71,66.7q-146.34.25-292.67,0c-12.75,0-26.24-.09-32.09,13.24A55.49,55.49,0,0,0,2239,535c4.61,10.59,15,12.27,25.83,12.24,53.41-.16,106.82-.07,160.24-.07,42.37,0,84.76-.31,127.13.09,48,.45,82.88,25.38,97.62,69,15,44.48,1.48,93.79-33.35,121-18.14,14.14-39.24,20.09-61.76,20.12q-214.55.35-429.08,0c-60.53-.15-94.67-32.75-96.89-95-2-57.31-.84-114.74-1-172.12-.09-37.52,0-75.05,0-112.57Z"/><path class="cls-1" d="M214,.09c37.13,1.13,81.74-2.24,126.2,3.26,161,19.9,306.46,124.27,337.51,308.94C712.18,517.35,592.83,696,390.46,747a501,501,0,0,1-123,15.2c-50.33,0-100.66.19-151-.11-17.18-.1-34.34-1.29-50.89-6.85C28.22,742.66,2.05,710.77,1.24,671.42-.07,607-.57,542.49,1,478.08c1.35-53.94,49.29-96.38,105-96.53,56.11-.14,102.84,41.6,106.25,95.47,1,15.84.27,31.78.67,47.66.39,15.33,7,24.79,21.36,25.41,43.59,1.86,87.32,3.83,129.11-13.33C437.27,506.42,478.83,433.14,467,353.38c-10.95-73.87-75-133.15-152.48-138.86-68.28-5-136.77-1.26-205.16-1.83-28.14-.24-52.8-8.4-74-27C3.08,157.47-8.69,109.46,6.69,68.32,21.82,27.85,60.25.52,103.29.15,137.72-.15,172.16.09,214,.09Z"/><path class="cls-1" d="M962,378.67c0,92.27.23,184.54-.1,276.8-.18,51.56-28.7,87.29-77.22,98.34-53.58,12.21-108.14-14.2-124.33-60.19a116.36,116.36,0,0,1-6.2-39q0-276.13,0-552.27c0-47.12,22.1-79.69,64-95,42.94-15.73,94-3.87,121.48,28.31C956.28,55.11,962,78.21,962,103.2Q962,240.93,962,378.67Z"/><path class="cls-1" d="M893.08,913.7a5.27,5.27,0,0,1,1.53,4v31.1q0,4.53-1.26,6.51c-.84,1.33-2.51,2.4-5,3.19a60.68,60.68,0,0,1-12.63,3.33A90.38,90.38,0,0,1,861.25,963q-14.22,0-24.59-5.71a37.92,37.92,0,0,1-15.81-16.48q-5.46-10.77-5.45-25.79,0-14.74,5.45-25.51A38.61,38.61,0,0,1,836.46,873q10.17-5.79,23.86-5.78a52.67,52.67,0,0,1,17.21,2.72A37.46,37.46,0,0,1,891,877.82a6.53,6.53,0,0,1,2.66,5.32,6.27,6.27,0,0,1-1.33,4.05,4,4,0,0,1-3.19,1.66,5.27,5.27,0,0,1-2.12-.4,17.58,17.58,0,0,1-2.4-1.33,48.82,48.82,0,0,0-11.82-6.71,36,36,0,0,0-12.23-1.93q-15.15,0-23.13,9.37t-8,27.18q0,18.21,8.17,27.58t24,9.37a65.85,65.85,0,0,0,20.47-3.19V922.61H864.71a6,6,0,0,1-4.19-1.4,5.45,5.45,0,0,1,0-7.57,6,6,0,0,1,4.19-1.4H889A5.64,5.64,0,0,1,893.08,913.7Z"/><path class="cls-1" d="M930.63,960.75a6.82,6.82,0,0,1-1.86-5V874.5a6.9,6.9,0,0,1,1.86-5,6.54,6.54,0,0,1,4.92-1.93,6.43,6.43,0,0,1,6.91,6.92v81.2a7,7,0,0,1-1.8,5,6.76,6.76,0,0,1-5.11,1.86A6.65,6.65,0,0,1,930.63,960.75Z"/><path class="cls-1" d="M1051.84,867.45a7.23,7.23,0,0,1,4.79,1.8,5.47,5.47,0,0,1,2.12,4.32,7.09,7.09,0,0,1-.66,2.52l-37.48,82.14a7.11,7.11,0,0,1-2.93,3.32,8.07,8.07,0,0,1-4.25,1.2,8.44,8.44,0,0,1-4.32-1.2,7,7,0,0,1-3-3.32l-37.35-82.14a7.09,7.09,0,0,1-.66-2.52,5.35,5.35,0,0,1,2.19-4.39,7.67,7.67,0,0,1,4.85-1.73,6,6,0,0,1,5.85,3.72l32.56,73,32.57-73A5.88,5.88,0,0,1,1051.84,867.45Z"/><path class="cls-1" d="M1086.06,960.16a6.6,6.6,0,0,1-1.79-4.86V874.9a6.6,6.6,0,0,1,1.79-4.86,6.77,6.77,0,0,1,5-1.79H1140a6.94,6.94,0,0,1,4.72,1.46,5.23,5.23,0,0,1,1.66,4.12,5,5,0,0,1-1.66,4.06,7.14,7.14,0,0,1-4.72,1.39h-42.27v29.51h39.61a6.89,6.89,0,0,1,4.72,1.46,5.94,5.94,0,0,1,0,8.24,6.94,6.94,0,0,1-4.72,1.46h-39.61v31H1140q6.38,0,6.38,5.45a5.23,5.23,0,0,1-1.66,4.12A6.94,6.94,0,0,1,1140,962h-48.91A6.77,6.77,0,0,1,1086.06,960.16Z"/><path class="cls-1" d="M1234.59,957.7a35.67,35.67,0,0,1-14.35-15.35q-5.06-10-5-23.6,0-15.54,5.65-27.24a41.43,41.43,0,0,1,16.14-18q10.5-6.32,24.46-6.31a56.31,56.31,0,0,1,17.74,2.65,37,37,0,0,1,13.23,7.31,6.5,6.5,0,0,1,2.92,5.45,5.83,5.83,0,0,1-1.53,4,4.73,4.73,0,0,1-3.65,1.73,6.35,6.35,0,0,1-3.72-1.33q-10.11-8.37-24.73-8.37-15.42,0-23.92,10.69t-8.5,29.58q0,15.81,7.37,24.25t21.07,8.44a37.72,37.72,0,0,0,12.69-2.19,40.82,40.82,0,0,0,11.36-6.18,6.35,6.35,0,0,1,3.72-1.33,4.16,4.16,0,0,1,3.39,1.53,5.71,5.71,0,0,1,1.27,3.79,6.54,6.54,0,0,1-2.66,5.31,40.38,40.38,0,0,1-13.56,7.71,52.76,52.76,0,0,1-17.54,2.79Q1243.9,963,1234.59,957.7Z"/><path class="cls-1" d="M1402.72,869.45a6.69,6.69,0,0,1,1.59,5L1397.93,956a7.24,7.24,0,0,1-2.19,4.85,7,7,0,0,1-5,1.79,6.41,6.41,0,0,1-4.85-1.86,6.15,6.15,0,0,1-1.53-5l2.79-35.75h-52.23l-2.8,36a7.2,7.2,0,0,1-2.19,4.85,7,7,0,0,1-5,1.79,6.41,6.41,0,0,1-4.85-1.86,6.15,6.15,0,0,1-1.53-5l6.38-81.47a6.57,6.57,0,0,1,2.12-4.85,7.25,7.25,0,0,1,5.05-1.8,6.22,6.22,0,0,1,4.79,1.87,6.69,6.69,0,0,1,1.59,5l-2.65,34.29h52.23l2.66-34.56a6.57,6.57,0,0,1,2.12-4.85,7.25,7.25,0,0,1,5-1.8A6.22,6.22,0,0,1,1402.72,869.45Z"/><path class="cls-1" d="M1515.82,956.5a5.64,5.64,0,0,1-2.06,4.45,6.79,6.79,0,0,1-4.58,1.8,5.81,5.81,0,0,1-3.39-1.07,6.48,6.48,0,0,1-2.33-3.19l-6.91-19.67H1448.7l-10.1,19.94a6.15,6.15,0,0,1-5.85,3.72,6.35,6.35,0,0,1-4.38-1.66,5.37,5.37,0,0,1-1.86-4.19,7.6,7.6,0,0,1,.8-3.19L1470,872.1a8.37,8.37,0,0,1,3.32-3.45,8.83,8.83,0,0,1,4.39-1.2,8,8,0,0,1,4.52,1.33,7.71,7.71,0,0,1,2.92,3.72l30.3,81.61A7.4,7.4,0,0,1,1515.82,956.5Zm-61.53-28.57h38.27l-15.68-44.4Z"/><path class="cls-1" d="M1625.74,869.51a6.54,6.54,0,0,1,1.59,4.85L1620.82,956a7.74,7.74,0,0,1-2,4.85,6.17,6.17,0,0,1-4.66,1.79,6.59,6.59,0,0,1-5.71-2.79l-46.52-68.58-5.18,64.86a7.24,7.24,0,0,1-2.13,4.72,6.41,6.41,0,0,1-4.65,1.79,5.76,5.76,0,0,1-4.59-1.92,6.88,6.88,0,0,1-1.52-5l6.51-81.34a7,7,0,0,1,2.06-4.91,6.7,6.7,0,0,1,4.85-1.87,6.15,6.15,0,0,1,5.45,2.8l46.52,68.31,5-64.59a7.09,7.09,0,0,1,2.12-4.79,6.77,6.77,0,0,1,4.79-1.73A5.81,5.81,0,0,1,1625.74,869.51Z"/><path class="cls-1" d="M1678.77,889.31q-8.91,10.85-8.91,30,0,15.68,7.71,24.19t23,8.5a60.09,60.09,0,0,0,19.54-3.32l2.13-26h-16.88a6.36,6.36,0,0,1-4.32-1.33,4.66,4.66,0,0,1-1.53-3.72,4.89,4.89,0,0,1,1.66-3.86,6.52,6.52,0,0,1,4.45-1.46h23.53a5.7,5.7,0,0,1,4.39,1.73,5.37,5.37,0,0,1,1.32,4.39l-2.26,30.7q-.39,4.52-1.79,6.51t-5.12,3.06a70.66,70.66,0,0,1-12.69,3.19,85.43,85.43,0,0,1-13.76,1.19q-20.73,0-32.09-11.56t-11.37-31.9q0-15.94,5.85-27.78a42.48,42.48,0,0,1,16.62-18.2q10.76-6.39,25.25-6.38a55.67,55.67,0,0,1,17.54,2.59,38.72,38.72,0,0,1,13,7,6.88,6.88,0,0,1,3.19,5.84,5.78,5.78,0,0,1-1.53,4.06,4.93,4.93,0,0,1-3.79,1.66,6.21,6.21,0,0,1-3.59-1.2,42,42,0,0,0-11.36-6.51,38.57,38.57,0,0,0-13.36-2.13Q1687.68,878.48,1678.77,889.31Z"/><path class="cls-1" d="M1785.62,879.28l-2.39,29.51h39.48a6.2,6.2,0,0,1,4.38,1.46,5,5,0,0,1,1.6,3.85,5.47,5.47,0,0,1-1.73,4.32A7.18,7.18,0,0,1,1822,920h-39.6l-2.53,31H1822a6.47,6.47,0,0,1,4.52,1.46,5,5,0,0,1,1.6,3.85,5.31,5.31,0,0,1-1.73,4.19,7.4,7.4,0,0,1-5,1.53h-49.05a5.57,5.57,0,0,1-6.24-6.78l6.38-80.41a6.53,6.53,0,0,1,2-4.85,7.29,7.29,0,0,1,5-1.66h49a6.27,6.27,0,0,1,4.39,1.46,5,5,0,0,1,1.59,3.86q0,5.71-6.64,5.71Z"/></g></g></svg>